# xmcd
#
# Track frame offsets: 
#        150
#        11082
#        19283
#        28659
#        41045
#        50130
#        56818
#        68846
#        77998
#        86527
#        99346
#        108188
#        116472
#        127720
#        139983
#        151084
#        157271
#        166622
#        175069
#        185118
#        195904
#        204203
#
# Disc length: 2843 seconds
#
# Revision: 0
# Processed by: cddbd v1.5.2PL0 Copyright (c) Steve Scherf et al.
# Submitted via: ExactAudioCopy v0.99pb4
#
DISCID=210b1916
DTITLE=Oscar Thiffault - Une Légende
DYEAR=1900
DGENRE=Traditionnel
TTITLE0=Y mouillera pu pantoute
TTITLE1=Woah Ferdinand
TTITLE2=La poule à Colin
TTITLE3=Le rapide blanc
TTITLE4=Je me roule
TTITLE5=La chanson des prunes
TTITLE6=Passe la bouteille
TTITLE7=Moi ça me tentait
TTITLE8=C'est le temps du jour de l'an
TTITLE9=Don't be grouille
TTITLE10=Les grèves
TTITLE11=La salope
TTITLE12=Le perroquet
TTITLE13=Quasimodo
TTITLE14=Boire à son tour
TTITLE15=La perruque
TTITLE16=Tape la bizoune
TTITLE17=Connaissez-vous ma blonde
TTITLE18=La cabane à sucre
TTITLE19=Les affaires sont slaques
TTITLE20=Les r'licats du jour de l'an
TTITLE21=Un chien comme ça
EXTD=
EXTT0=
EXTT1=
EXTT2=
EXTT3=
EXTT4=
EXTT5=
EXTT6=
EXTT7=
EXTT8=
EXTT9=
EXTT10=
EXTT11=
EXTT12=
EXTT13=
EXTT14=
EXTT15=
EXTT16=
EXTT17=
EXTT18=
EXTT19=
EXTT20=
EXTT21=
PLAYORDER=
